<svg width="47" height="47" viewBox="0 0 47 47" fill="none" xmlns="http://www.w3.org/2000/svg">
<path d="M43.6338 11.281C42.7741 10.3804 41.5869 9.84816 40.236 9.84816H33.4403V9.76629C33.4403 8.74284 33.0309 7.76033 32.335 7.10532C31.639 6.40938 30.6975 6 29.674 6H17.3926C16.3283 6 15.3867 6.40938 14.6907 7.10532C13.9948 7.80127 13.5854 8.74284 13.5854 9.76629V9.84816H6.83067C5.47972 9.84816 4.29252 10.3804 3.43283 11.281C2.57313 12.1407 2 13.3688 2 14.6788V35.0659C2 36.4169 2.53219 37.6041 3.43283 38.4638C4.29252 39.3235 5.52066 39.8966 6.83067 39.8966H40.236C41.5869 39.8966 42.7741 39.3644 43.6338 38.4638C44.4935 37.6041 45.0667 36.3759 45.0667 35.0659V14.6788C45.0667 13.3279 44.5345 12.1407 43.6338 11.281ZM42.9379 35.0659H42.897C42.897 35.8028 42.6104 36.4578 42.1191 36.9491C41.6279 37.4403 40.9729 37.7269 40.236 37.7269H6.83067C6.09379 37.7269 5.43878 37.4403 4.94753 36.9491C4.45627 36.4578 4.16971 35.8028 4.16971 35.0659V14.6788C4.16971 13.942 4.45627 13.2869 4.94753 12.7957C5.43878 12.3044 6.09379 12.0179 6.83067 12.0179H14.7317C15.3458 12.0179 15.837 11.5266 15.837 10.9125V9.72535C15.837 9.27503 16.0008 8.86565 16.2873 8.57909C16.5739 8.29252 16.9833 8.12877 17.4336 8.12877H29.674C30.1243 8.12877 30.5337 8.29252 30.8203 8.57909C31.1068 8.86565 31.2706 9.27503 31.2706 9.72535V10.9125C31.2706 11.5266 31.7619 12.0179 32.3759 12.0179H40.2769C41.0138 12.0179 41.6688 12.3044 42.1601 12.7957C42.6513 13.2869 42.9379 13.942 42.9379 14.6788V35.0659Z" fill="#333333"/>
<g clip-path="url(#clip0_607:598)">
<path d="M30.1934 21.3596C27.8862 17.3635 23.4243 16.3875 19.8172 18.4701C16.8854 20.1627 15.4176 23.0837 16.001 26.0015" stroke="#333333" stroke-width="1.81333" stroke-linecap="round" stroke-linejoin="round"/>
<path d="M16.8724 29.0494C19.1795 33.0455 23.6414 34.0215 27.2486 31.9389C30.181 30.2458 31.6482 27.3252 31.0648 24.4075" stroke="#333333" stroke-width="1.81333" stroke-linecap="round" stroke-linejoin="round"/>
<path d="M18.2805 23.797L16.001 26.0011L13.7968 23.7216" stroke="#333333" stroke-width="1.81333" stroke-linecap="round" stroke-linejoin="round"/>
<path d="M28.7858 26.6122L31.0653 24.4081L33.2694 26.6876" stroke="#333333" stroke-width="1.81333" stroke-linecap="round" stroke-linejoin="round"/>
</g>
<defs>
<clipPath id="clip0_607:598">
<rect width="18.4571" height="18.4571" fill="white" transform="matrix(-0.5 -0.866025 -0.866025 0.5 36.1394 28.582)"/>
</clipPath>
</defs>
</svg>
