<svg width="24" height="24" viewBox="0 0 24 24" fill="none" xmlns="http://www.w3.org/2000/svg">
<path fill-rule="evenodd" clip-rule="evenodd" d="M4.2766 4.57454H6.53035L8.55224 2.57113C8.8778 2.22167 9.33899 2 9.85629 2H14.3076C14.7954 2 15.237 2.19519 15.5587 2.51075L15.5626 2.51396C15.5641 2.51595 15.5657 2.51744 15.5674 2.51899L15.5694 2.52098L17.6344 4.57454H19.7234C21.533 4.57454 23 6.04152 23 7.85113V17.915C23 19.7246 21.533 21.1916 19.7234 21.1916H4.2766C2.46698 21.1916 1 19.7246 1 17.915V7.85113C1 6.04152 2.46698 4.57454 4.2766 4.57454ZM18.5976 8.43623C18.5976 9.01797 19.069 9.48932 19.651 9.48932C20.2328 9.48932 20.704 9.01797 20.704 8.43623C20.704 7.85449 20.2328 7.38294 19.651 7.38294C19.069 7.38294 18.5976 7.85449 18.5976 8.43623ZM6.42755 12.7659C6.42755 9.66871 8.94755 7.14887 12.0447 7.14887C15.1416 7.14887 17.6616 9.66871 17.6616 12.7659C17.6616 15.8631 15.1416 18.3829 12.0447 18.3829C8.94755 18.3829 6.42755 15.8631 6.42755 12.7659ZM12.0445 17.2126C9.59251 17.2126 7.59764 15.218 7.59764 12.7659C7.59764 10.3139 9.59251 8.31901 12.0445 8.31901C14.4966 8.31901 16.4913 10.3139 16.4913 12.7659C16.4913 15.218 14.4966 17.2126 12.0445 17.2126Z" fill="white"/>
</svg>
