<svg width="47" height="47" viewBox="0 0 47 47" fill="none" xmlns="http://www.w3.org/2000/svg">
<path fill-rule="evenodd" clip-rule="evenodd" d="M5 11.5556C5 11.0033 5.44772 10.5556 6 10.5556H19.2222V12.5556H7V35.1112H19.2222V37.1112H6C5.44772 37.1112 5 36.6634 5 36.1112V11.5556Z" fill="white"/>
<path fill-rule="evenodd" clip-rule="evenodd" d="M38.8981 35.1074V32.3297H40.8981V36.1074C40.8981 36.6597 40.4504 37.1074 39.8981 37.1074H36.1203V35.1074H38.8981Z" fill="white"/>
<path fill-rule="evenodd" clip-rule="evenodd" d="M36.1203 10.5519H39.8981C40.4504 10.5519 40.8981 10.9996 40.8981 11.5519V15.3297H38.8981V12.5519H36.1203V10.5519Z" fill="white"/>
<path fill-rule="evenodd" clip-rule="evenodd" d="M32.4444 12.5556H26.7778V10.5556H32.4444V12.5556Z" fill="white"/>
<path fill-rule="evenodd" clip-rule="evenodd" d="M32.4444 37.1111H26.7778V35.1111H32.4444V37.1111Z" fill="white"/>
<path fill-rule="evenodd" clip-rule="evenodd" d="M38.8981 28.3195V20.7639H40.8981V28.3195H38.8981Z" fill="white"/>
<path fill-rule="evenodd" clip-rule="evenodd" d="M23 3C23.5523 3 24 3.44772 24 4V42.9111C24 43.4634 23.5523 43.9111 23 43.9111C22.4477 43.9111 22 43.4634 22 42.9111V4C22 3.44772 22.4477 3 23 3Z" fill="white"/>
</svg>
