<svg width="47" height="47" viewBox="0 0 47 47" fill="none" xmlns="http://www.w3.org/2000/svg">
<path fill-rule="evenodd" clip-rule="evenodd" d="M4.5 40.9999C4.5 40.1715 5.17157 39.4999 6 39.4999H40C40.8284 39.4999 41.5 40.1715 41.5 40.9999C41.5 41.8284 40.8284 42.4999 40 42.4999H6C5.17157 42.4999 4.5 41.8284 4.5 40.9999Z" fill="white"/>
<path fill-rule="evenodd" clip-rule="evenodd" d="M33.6066 24.5147L24.0607 34.0607C23.4749 34.6464 22.5251 34.6464 21.9393 34.0607L12.3934 24.5147C11.8076 23.9289 11.8076 22.9792 12.3934 22.3934C12.9792 21.8076 13.9289 21.8076 14.5147 22.3934L21.5 29.3787L21.5 5L24.5 5L24.5 29.3787L31.4853 22.3934C32.0711 21.8076 33.0208 21.8076 33.6066 22.3934C34.1924 22.9792 34.1924 23.9289 33.6066 24.5147Z" fill="white"/>
</svg>
