<svg width="47" height="47" viewBox="0 0 47 47" fill="none" xmlns="http://www.w3.org/2000/svg">
<path d="M7.88885 8.88898H21.1111V22.1112H7.88885V8.88898Z" fill="white"/>
<path fill-rule="evenodd" clip-rule="evenodd" d="M6.9444 8.88896C6.9444 8.36736 7.36724 7.94452 7.88884 7.94452H21.1111C21.6327 7.94452 22.0555 8.36736 22.0555 8.88896V22.1112C22.0555 22.6328 21.6327 23.0556 21.1111 23.0556H7.88884C7.36724 23.0556 6.9444 22.6328 6.9444 22.1112V8.88896ZM8.83329 9.83341V21.1667H20.1666V9.83341H8.83329Z" fill="white"/>
<path fill-rule="evenodd" clip-rule="evenodd" d="M6.9444 25.889C6.9444 25.3674 7.36724 24.9445 7.88884 24.9445H21.1111C21.6327 24.9445 22.0555 25.3674 22.0555 25.889V39.1112C22.0555 39.6328 21.6327 40.0556 21.1111 40.0556H7.88884C7.36724 40.0556 6.9444 39.6328 6.9444 39.1112V25.889ZM8.83329 26.8334V38.1667H20.1666V26.8334H8.83329Z" fill="white"/>
<path fill-rule="evenodd" clip-rule="evenodd" d="M23.9444 8.88896C23.9444 8.36736 24.3672 7.94452 24.8888 7.94452H38.1111C38.6327 7.94452 39.0555 8.36736 39.0555 8.88896V22.1112C39.0555 22.6328 38.6327 23.0556 38.1111 23.0556H24.8888C24.3672 23.0556 23.9444 22.6328 23.9444 22.1112V8.88896ZM25.8333 9.83341V21.1667H37.1666V9.83341H25.8333Z" fill="white"/>
<path fill-rule="evenodd" clip-rule="evenodd" d="M23.9444 25.889C23.9444 25.3674 24.3672 24.9445 24.8888 24.9445H38.1111C38.6327 24.9445 39.0555 25.3674 39.0555 25.889V39.1112C39.0555 39.6328 38.6327 40.0556 38.1111 40.0556H24.8888C24.3672 40.0556 23.9444 39.6328 23.9444 39.1112V25.889ZM25.8333 26.8334V38.1667H37.1666V26.8334H25.8333Z" fill="white"/>
</svg>
