<svg width="47" height="47" viewBox="0 0 47 47" fill="none" xmlns="http://www.w3.org/2000/svg">
<path fill-rule="evenodd" clip-rule="evenodd" d="M4.4 8.92667H41.1214C41.9351 8.92667 42.5947 9.5863 42.5947 10.4V37.6C42.5947 38.4137 41.9351 39.0733 41.1214 39.0733H4.4C3.5863 39.0733 2.92667 38.4137 2.92667 37.6V10.4C2.92667 9.5863 3.5863 8.92667 4.4 8.92667ZM1 10.4C1 8.52223 2.52223 7 4.4 7H41.1214C42.9992 7 44.5214 8.52223 44.5214 10.4V37.6C44.5214 39.4778 42.9992 41 41.1214 41H4.4C2.52224 41 1 39.4778 1 37.6V10.4ZM30.1268 24.7593L38.3207 15.1916C38.5222 15.0488 38.6523 14.8115 38.6523 14.5462C38.6523 14.11 38.2977 13.7554 37.8615 13.7554C37.6293 13.7554 37.4202 13.8575 37.2696 14.0182L26.8258 25.5935C25.7084 26.5909 24.2314 27.0884 22.7569 27.0884C21.2824 27.0884 19.8054 26.5909 18.688 25.5935L8.24417 14.0182C8.10131 13.8575 7.89213 13.7554 7.65743 13.7554C7.22121 13.7554 6.86662 14.11 6.86662 14.5462C6.86662 14.8115 6.99927 15.0488 7.2008 15.1916L15.3947 24.7593L6.62937 32.5705C6.42784 32.7134 6.29519 32.9506 6.29519 33.2159C6.29519 33.6522 6.64978 34.0068 7.08601 34.0068C7.31815 34.0068 7.52988 33.9047 7.67274 33.744L16.5758 25.8103L17.512 26.6445C18.9559 27.9328 20.859 28.5756 22.762 28.5756C24.6651 28.5756 26.5681 27.9328 28.012 26.6445L28.9457 25.8103L37.8487 33.744C37.9916 33.9047 38.2008 34.0068 38.4355 34.0068C38.8717 34.0068 39.2263 33.6522 39.2263 33.2159C39.2263 32.9506 39.0936 32.7134 38.8921 32.5705L30.1268 24.7593Z" fill="white"/>
</svg>
