<svg width="47" height="47" viewBox="0 0 47 47" fill="none" xmlns="http://www.w3.org/2000/svg">
<path d="M7.00014 17.6025C7.00014 15.8425 7.3078 14.1798 7.91407 12.6279C8.49332 11.1206 9.35392 9.73724 10.45 8.55145C11.5439 7.38124 12.7956 6.36933 14.1691 5.54499C15.5782 4.69248 17.1038 4.04932 18.698 3.63569C20.3114 3.21203 21.9728 2.99837 23.6409 3.00001C26.2176 3.00001 28.6155 3.5452 30.8392 4.63106C33.0339 5.69711 34.902 7.33313 36.2482 9.36811C37.6372 11.438 38.3271 13.7794 38.3271 16.39C38.3271 17.9554 38.1733 19.4869 37.8589 20.9845C37.5501 22.4813 37.0593 23.9346 36.3975 25.3121C35.7666 26.6456 34.9418 27.8783 33.9498 28.9701C32.9528 30.0445 31.7454 30.9024 30.4026 31.4902C28.9449 32.1291 27.3679 32.4506 25.7764 32.4335C24.6702 32.4335 23.5663 32.1734 22.4759 31.6508C21.3855 31.1305 20.6028 30.4156 20.1322 29.4995C19.9671 30.1351 19.7409 31.0536 19.44 32.2548C19.1504 33.4538 18.9559 34.2275 18.8699 34.5781C18.7794 34.9265 18.612 35.5079 18.3677 36.3132C18.202 36.9089 17.9895 37.4906 17.732 38.0528L16.9538 39.5776C16.6173 40.2318 16.2411 40.8649 15.8273 41.4733C15.4178 42.066 14.9111 42.7741 14.3071 43.5885L13.97 43.7084L13.746 43.464C13.504 40.901 13.3796 39.3672 13.3796 38.8605C13.3796 37.3606 13.5583 35.6775 13.9112 33.809C14.2573 31.9426 14.8047 29.5967 15.54 26.7758C16.2752 23.9571 16.6959 22.2989 16.8091 21.808C16.291 20.7515 16.0286 19.3716 16.0286 17.6749C16.0286 16.3199 16.4516 15.0508 17.3 13.8563C18.1505 12.6664 19.2251 12.0714 20.5281 12.0714C21.5257 12.0714 22.2994 12.4017 22.8537 13.0646C23.4102 13.7251 23.6816 14.5576 23.6816 15.5733C23.6816 16.6501 23.3242 18.2088 22.6048 20.247C21.8854 22.2876 21.528 23.81 21.528 24.8212C21.528 25.846 21.8945 26.7034 22.6274 27.3752C23.3508 28.0475 24.3073 28.4117 25.2946 28.391C26.1904 28.391 27.0206 28.1874 27.792 27.7779C28.5514 27.3805 29.2087 26.813 29.7127 26.1197C30.8103 24.6138 31.5928 22.9018 32.0133 21.0863C32.2305 20.1317 32.3979 19.2245 32.502 18.3717C32.6128 17.5143 32.6603 16.7044 32.6603 15.9353C32.6603 13.1143 31.7645 10.9155 29.9841 9.34096C28.1947 7.76647 25.8647 6.98375 22.9984 6.98375C19.7386 6.98375 17.0127 8.03794 14.8296 10.1531C12.6443 12.2615 11.5449 14.9422 11.5449 18.193C11.5449 18.9101 11.6535 19.6023 11.8594 20.2719C12.0607 20.9393 12.2801 21.4709 12.5177 21.8645C12.7529 22.2514 12.9746 22.6291 13.176 22.9775C13.3796 23.3259 13.4859 23.5747 13.4859 23.7241C13.4859 24.181 13.366 24.776 13.1239 25.5112C12.8728 26.2464 12.5765 26.6129 12.219 26.6129C12.1851 26.6129 12.0449 26.588 11.8005 26.536C10.9544 26.2834 10.1902 25.8111 9.58584 25.1673C8.94437 24.5001 8.43812 23.715 8.09505 22.8554C7.75295 21.9988 7.48651 21.1139 7.29875 20.2108C7.09591 19.3564 6.99566 18.4807 7.00014 17.6025V17.6025Z" fill="white"/>
</svg>
