<svg width="47" height="47" viewBox="0 0 47 47" fill="none" xmlns="http://www.w3.org/2000/svg">
<path fill-rule="evenodd" clip-rule="evenodd" d="M23.7707 7.88088C26.9864 7.74008 30.1718 8.55598 32.9238 10.2255C35.6759 11.895 37.871 14.3431 39.2317 17.2602C40.5924 20.1773 41.0576 23.4324 40.5683 26.6138C40.0791 29.7952 38.6573 32.7602 36.4829 35.1336C34.3086 37.5071 31.4794 39.1824 28.3529 39.9479C25.2276 40.713 21.9455 40.5347 18.9216 39.4353C16.833 38.6566 14.9177 37.4748 13.285 35.9572C12.8805 35.5812 12.2477 35.6043 11.8717 36.0088C11.4957 36.4133 11.5188 37.0461 11.9233 37.4221C13.7492 39.1193 15.8912 40.4406 18.2272 41.3108L18.2272 41.3109L18.2344 41.3135C21.631 42.5492 25.3178 42.75 28.8285 41.8905C32.3392 41.031 35.5161 39.1497 37.9577 36.4846C40.3992 33.8195 41.9957 30.4902 42.5451 26.9178C43.0945 23.3454 42.5721 19.6903 41.0442 16.4147C39.5163 13.1392 37.0514 10.3902 33.9612 8.51552C30.8709 6.64084 27.2941 5.72469 23.6832 5.88279C20.0722 6.0409 16.5894 7.26619 13.6748 9.40378C11.1056 11.2881 9.0797 13.8068 7.78919 16.7038L4.34411 15.4504L5.17635 20.1726L6.00685 24.8945L9.68075 21.8115L13.3529 18.7281L9.67386 17.3895C10.8254 14.8634 12.6075 12.6668 14.8576 11.0165C17.4532 9.11287 20.5549 8.02168 23.7707 7.88088Z" fill="white"/>
</svg>
