<svg width="47" height="47" viewBox="0 0 47 47" fill="none" xmlns="http://www.w3.org/2000/svg">
<path fill-rule="evenodd" clip-rule="evenodd" d="M7.29289 38.2929C6.90237 38.6834 6.90237 39.3166 7.29289 39.7071C7.68342 40.0976 8.31658 40.0976 8.70711 39.7071L23 25.4142L37.2929 39.7071C37.6834 40.0977 38.3166 40.0977 38.7071 39.7071C39.0976 39.3166 39.0976 38.6834 38.7071 38.2929L24.4142 24L38.7071 9.70711C39.0976 9.31658 39.0976 8.68342 38.7071 8.29289C38.3166 7.90237 37.6834 7.90237 37.2929 8.29289L23 22.5858L8.70711 8.29292C8.31658 7.9024 7.68342 7.9024 7.29289 8.29292C6.90237 8.68345 6.90237 9.31661 7.29289 9.70714L21.5858 24L7.29289 38.2929Z" fill="white"/>
</svg>
