<svg width="47" height="47" viewBox="0 0 47 47" fill="none" xmlns="http://www.w3.org/2000/svg">
<path d="M6.87054 34.8027C7.08233 22.0956 14.7066 12.7771 30.5904 11.93C30.5904 10.0239 30.5904 8.11785 30.5904 6C35.2497 10.0239 39.4854 13.836 43.9329 17.8599C39.4854 21.8839 35.2497 25.9078 30.8022 30.1435C30.8022 28.0256 30.8022 26.1196 30.8022 23.7899C29.5315 23.5781 28.049 23.3664 26.9901 23.3664C23.6015 23.1546 20.213 23.3664 17.0362 24.6371C12.3769 26.3313 9.41196 29.5081 7.5059 33.9556C7.29411 34.1674 7.29411 34.3792 6.87054 34.8027C7.08233 34.8027 7.08233 34.8027 6.87054 34.8027Z" fill="white"/>
<path d="M33.3441 34.3793V36.9207C33.3441 38.1914 32.2852 39.0385 31.2263 39.0385H6.2357C4.96499 39.0385 4.11785 37.9796 4.11785 36.9207V11.9301C4.11785 10.6594 5.17677 9.81224 6.2357 9.81224H23.8134L23.8138 7.6944H6.2357C3.90606 7.6944 2 9.60046 2 11.9301V36.7089C2 39.0385 3.90606 40.9446 6.2357 40.9446H31.0145C33.3441 40.9446 35.2502 39.0385 35.2502 36.7089V32.2614C34.8266 32.8968 33.9795 33.5321 33.3441 34.3793Z" fill="white"/>
</svg>
