<svg width="47" height="47" viewBox="0 0 47 47" fill="none" xmlns="http://www.w3.org/2000/svg">
<path d="M10.0132 27.8691C10.0132 27.1641 9.76352 26.6207 9.26414 26.2388C8.77211 25.857 7.87984 25.4714 6.58734 25.0822C5.29484 24.693 4.26672 24.2597 3.50297 23.7823C2.04156 22.8644 1.31086 21.6673 1.31086 20.1913C1.31086 18.8988 1.83594 17.8339 2.88609 16.9967C3.94359 16.1595 5.3132 15.7409 6.99492 15.7409C8.11117 15.7409 9.10625 15.9466 9.98016 16.3578C10.8541 16.7691 11.5407 17.3566 12.0401 18.1203C12.5395 18.8767 12.7891 19.7176 12.7891 20.6429H10.0132C10.0132 19.8057 9.74883 19.1521 9.22008 18.6821C8.69867 18.2048 7.94961 17.9661 6.97289 17.9661C6.06227 17.9661 5.35359 18.1607 4.84687 18.5499C4.3475 18.9391 4.09781 19.4826 4.09781 20.1802C4.09781 20.7677 4.36953 21.2598 4.91297 21.6563C5.45641 22.0455 6.35234 22.4274 7.60078 22.802C8.84922 23.1691 9.85164 23.5914 10.608 24.0688C11.3645 24.5388 11.9189 25.0822 12.2714 25.6991C12.6239 26.3086 12.8002 27.0246 12.8002 27.8471C12.8002 29.1837 12.2861 30.2485 11.258 31.0416C10.2372 31.8274 8.84922 32.2203 7.09406 32.2203C5.93375 32.2203 4.86523 32.0073 3.88852 31.5814C2.91914 31.1481 2.16273 30.5533 1.6193 29.7969C1.0832 29.0405 0.815156 28.1592 0.815156 27.1531H3.60211C3.60211 28.0638 3.9032 28.7688 4.50539 29.2681C5.10758 29.7675 5.97047 30.0172 7.09406 30.0172C8.06344 30.0172 8.79047 29.8226 9.27516 29.4334C9.76719 29.0368 10.0132 28.5154 10.0132 27.8691ZM18.8587 15.9613L23.4853 28.2547L28.1009 15.9613H31.703V32H28.927V26.7125L29.2024 19.6405L24.4657 32H22.4719L17.7462 19.6515L18.0216 26.7125V32H15.2456V15.9613H18.8587ZM43.3905 27.8691C43.3905 27.1641 43.1409 26.6207 42.6415 26.2388C42.1495 25.857 41.2572 25.4714 39.9647 25.0822C38.6722 24.693 37.6441 24.2597 36.8803 23.7823C35.4189 22.8644 34.6882 21.6673 34.6882 20.1913C34.6882 18.8988 35.2133 17.8339 36.2634 16.9967C37.3209 16.1595 38.6905 15.7409 40.3723 15.7409C41.4885 15.7409 42.4836 15.9466 43.3575 16.3578C44.2314 16.7691 44.918 17.3566 45.4174 18.1203C45.9168 18.8767 46.1665 19.7176 46.1665 20.6429H43.3905C43.3905 19.8057 43.1262 19.1521 42.5974 18.6821C42.076 18.2048 41.327 17.9661 40.3502 17.9661C39.4396 17.9661 38.7309 18.1607 38.2242 18.5499C37.7248 18.9391 37.4752 19.4826 37.4752 20.1802C37.4752 20.7677 37.7469 21.2598 38.2903 21.6563C38.8337 22.0455 39.7297 22.4274 40.9781 22.802C42.2266 23.1691 43.229 23.5914 43.9854 24.0688C44.7418 24.5388 45.2962 25.0822 45.6487 25.6991C46.0012 26.3086 46.1775 27.0246 46.1775 27.8471C46.1775 29.1837 45.6634 30.2485 44.6353 31.0416C43.6145 31.8274 42.2266 32.2203 40.4714 32.2203C39.3111 32.2203 38.2426 32.0073 37.2659 31.5814C36.2965 31.1481 35.5401 30.5533 34.9966 29.7969C34.4605 29.0405 34.1925 28.1592 34.1925 27.1531H36.9795C36.9795 28.0638 37.2805 28.7688 37.8827 29.2681C38.4849 29.7675 39.3478 30.0172 40.4714 30.0172C41.4408 30.0172 42.1678 29.8226 42.6525 29.4334C43.1445 29.0368 43.3905 28.5154 43.3905 27.8691Z" fill="white"/>
</svg>
