<svg width="47" height="47" viewBox="0 0 47 47" fill="none" xmlns="http://www.w3.org/2000/svg">
<path d="M41.7294 12.8792C40.397 13.4696 38.9655 13.8686 37.4607 14.0489C39.0134 13.1198 40.175 11.6575 40.7289 9.93491C39.2701 10.8014 37.6735 11.4113 36.0085 11.7382C34.8889 10.5427 33.4059 9.75032 31.7898 9.48406C30.1736 9.2178 28.5148 9.49254 27.0708 10.2656C25.6269 11.0387 24.4785 12.2669 23.8041 13.7596C23.1297 15.2522 22.9669 16.9257 23.3411 18.5203C20.3852 18.3719 17.4935 17.6036 14.8537 16.2653C12.214 14.927 9.88508 13.0486 8.01825 10.752C7.37994 11.8531 7.0129 13.1297 7.0129 14.4893C7.01219 15.7133 7.3136 16.9185 7.8904 17.998C8.46719 19.0776 9.30153 19.9981 10.3194 20.6778C9.13894 20.6403 7.98454 20.3213 6.95226 19.7475V19.8432C6.95214 21.5599 7.54595 23.2237 8.63293 24.5524C9.7199 25.8811 11.2331 26.7928 12.9158 27.1328C11.8207 27.4292 10.6726 27.4728 9.5582 27.2605C10.0329 28.7376 10.9577 30.0292 12.203 30.9546C13.4483 31.88 14.9519 32.3928 16.5031 32.4213C13.8698 34.4885 10.6176 35.6098 7.26983 35.6049C6.6768 35.605 6.08427 35.5704 5.4953 35.5012C8.89351 37.6861 12.8493 38.8457 16.8893 38.8412C30.5653 38.8412 38.0416 27.5142 38.0416 17.6905C38.0416 17.3713 38.0336 17.049 38.0192 16.7298C39.4735 15.6781 40.7287 14.3758 41.7263 12.8839L41.7294 12.8792V12.8792Z" fill="white"/>
</svg>
