<svg width="47" height="47" viewBox="0 0 47 47" fill="none" xmlns="http://www.w3.org/2000/svg">
<path d="M20.4672 24.6388C17.3145 23.8193 13.7544 25.3888 12.3841 28.1665C10.9906 30.9997 12.3378 34.1432 15.5229 35.1709C18.8191 36.2357 22.7079 34.6061 24.0597 31.546C25.3884 28.5554 23.7264 25.4813 20.4672 24.6388V24.6388ZM18.0599 31.8701C17.421 32.8932 16.046 33.3377 15.0136 32.8701C13.9951 32.4071 13.6942 31.2173 14.3377 30.222C14.972 29.2313 16.296 28.7868 17.3191 29.2174C18.3561 29.6572 18.6895 30.8377 18.0599 31.8701V31.8701ZM20.1663 29.1618C19.9348 29.56 19.4209 29.7498 19.0228 29.5831C18.6293 29.4211 18.5043 28.9766 18.7265 28.5878C18.958 28.1989 19.4487 28.0137 19.8422 28.1665C20.245 28.3146 20.3885 28.7637 20.1663 29.1618V29.1618ZM35.6521 20.0324C36.3465 20.2546 37.0872 19.875 37.3141 19.1852C37.8604 17.4908 37.5178 15.5556 36.24 14.139C35.6334 13.4668 34.8606 12.9662 33.9992 12.6874C33.1377 12.4087 32.2181 12.3617 31.3327 12.5511C31.1633 12.5871 31.0027 12.6562 30.86 12.7543C30.7173 12.8525 30.5954 12.9778 30.5012 13.1232C30.4071 13.2685 30.3425 13.431 30.3112 13.6014C30.2799 13.7717 30.2825 13.9465 30.3189 14.1158C30.355 14.285 30.4243 14.4454 30.5226 14.5877C30.6209 14.7301 30.7463 14.8516 30.8917 14.9454C31.0371 15.0391 31.1995 15.1033 31.3697 15.1341C31.54 15.1649 31.7146 15.1619 31.8836 15.1251C32.7355 14.9445 33.6567 15.2084 34.2864 15.8982C34.5836 16.2267 34.7886 16.6281 34.8805 17.0615C34.9724 17.4949 34.9479 17.9449 34.8095 18.3658C34.7549 18.5305 34.7334 18.7044 34.7463 18.8775C34.7591 19.0505 34.806 19.2193 34.8843 19.3742C34.9626 19.5291 35.0708 19.667 35.2025 19.7799C35.3343 19.8929 35.4871 19.9787 35.6521 20.0324V20.0324ZM40.2723 10.4956C37.6474 7.58358 33.7725 6.4725 30.1939 7.23174C29.9969 7.27339 29.81 7.35358 29.6442 7.46772C29.4783 7.58185 29.3366 7.72767 29.2273 7.89677C29.118 8.06588 29.0433 8.25493 29.0073 8.45304C28.9714 8.65116 28.975 8.85443 29.018 9.05114C29.0599 9.24814 29.1402 9.43495 29.2543 9.6009C29.3684 9.76686 29.5141 9.9087 29.6831 10.0183C29.8521 10.128 30.0409 10.2032 30.239 10.2398C30.4371 10.2764 30.6404 10.2737 30.8374 10.2317C33.3836 9.69002 36.1335 10.4817 38.0039 12.5511C39.8696 14.6205 40.3742 17.4445 39.5779 19.9166C39.3187 20.7222 39.7585 21.5833 40.564 21.8472C41.3695 22.1064 42.2306 21.6666 42.4899 20.8657V20.8611C43.6056 17.3704 42.9019 13.4029 40.2723 10.4956V10.4956ZM33.0456 22.6018C32.4808 22.4351 32.0966 22.3194 32.3929 21.5787C33.0318 19.9722 33.0966 18.5833 32.4068 17.5973C31.1105 15.7408 27.555 15.8427 23.481 17.5463C23.481 17.5463 22.2033 18.1065 22.5274 17.0926C23.1523 15.0788 23.0598 13.3936 22.0829 12.4168C19.8746 10.2039 13.9998 12.5001 8.9582 17.5371C5.18977 21.3101 3 25.3101 3 28.7683C3 35.3839 11.4813 39.407 19.782 39.407C30.6614 39.407 37.8974 33.0877 37.8974 28.0646C37.8974 25.0323 35.3419 23.3147 33.0456 22.6018ZM19.8052 37.0366C13.185 37.6894 7.4675 34.6987 7.03695 30.347C6.6064 25.9999 11.6294 21.9444 18.2497 21.2916C24.8699 20.6342 30.5874 23.6295 31.0179 27.9767C31.4438 32.3238 26.4254 36.3793 19.8052 37.0366Z" fill="white"/>
</svg>
