<svg width="47" height="47" viewBox="0 0 47 47" fill="none" xmlns="http://www.w3.org/2000/svg">
<path fill-rule="evenodd" clip-rule="evenodd" d="M31.5738 27.7715C31.1019 27.5356 28.7887 26.3988 28.358 26.2404C27.9273 26.0837 27.6138 26.0061 27.2988 26.4779C26.9853 26.9466 26.0843 28.0074 25.8104 28.3209C25.5349 28.636 25.261 28.674 24.7907 28.4397C24.3205 28.2022 22.8037 27.7066 21.0066 26.1043C19.6085 24.8566 18.6633 23.316 18.3893 22.8442C18.1154 22.3739 18.3593 22.119 18.5952 21.8847C18.8073 21.6741 19.0654 21.3353 19.3013 21.0613C19.5372 20.7858 19.6148 20.5895 19.7716 20.2744C19.9299 19.9609 19.8508 19.687 19.732 19.4511C19.6148 19.2152 18.6743 16.8988 18.2817 15.9567C17.9001 15.0399 17.5122 15.165 17.224 15.1492C16.9485 15.1365 16.635 15.1333 16.3215 15.1333C16.008 15.1333 15.4982 15.2505 15.0675 15.7223C14.6352 16.1926 13.4208 17.331 13.4208 19.6474C13.4208 21.9623 15.1055 24.1995 15.3414 24.5146C15.5773 24.8281 18.6585 29.5813 23.3784 31.619C24.5026 32.1035 25.3782 32.3933 26.0606 32.6086C27.1879 32.968 28.2139 32.9173 29.0246 32.7954C29.9271 32.6608 31.8081 31.657 32.2008 30.5582C32.5918 29.4593 32.5918 28.5173 32.4747 28.3209C32.3575 28.1246 32.044 28.0074 31.5722 27.7715H31.5738ZM22.9889 39.4929H22.9826C20.1792 39.4934 17.4273 38.7398 15.0152 37.3111L14.4453 36.9723L8.52042 38.5271L10.1022 32.7511L9.73008 32.1589C8.1628 29.6641 7.33338 26.7768 7.33767 23.8306C7.34083 15.2014 14.3613 8.18092 22.9953 8.18092C27.1753 8.18092 31.1051 9.81175 34.0596 12.7694C35.5168 14.2207 36.6719 15.9465 37.4579 17.847C38.2438 19.7475 38.6451 21.785 38.6386 23.8417C38.6354 32.4708 31.6149 39.4929 22.9889 39.4929V39.4929ZM36.3079 10.5227C34.5634 8.76663 32.4877 7.37427 30.2011 6.42627C27.9146 5.47827 25.4626 4.99348 22.9873 5C12.6102 5 4.1615 13.4471 4.15833 23.829C4.15675 27.1477 5.02283 30.3872 6.67108 33.2419L4 43L13.9813 40.3812C16.7425 41.8855 19.8366 42.6738 22.981 42.6738H22.9889C33.3661 42.6738 41.8148 34.2268 41.8179 23.8433C41.8256 21.3689 41.3425 18.9177 40.3968 16.6312C39.451 14.3448 38.0612 12.2686 36.3079 10.5227" fill="white"/>
</svg>
