<svg width="47" height="47" viewBox="0 0 47 47" fill="none" xmlns="http://www.w3.org/2000/svg">
<path fill-rule="evenodd" clip-rule="evenodd" d="M24.6666 6.99988C24.6666 6.44759 24.2189 5.99988 23.6666 5.99988C23.1144 5.99988 22.6666 6.44759 22.6666 6.99988V23H6.66653C6.11424 23 5.66653 23.4477 5.66653 24C5.66653 24.5523 6.11424 25 6.66653 25H22.6666V40.9999C22.6666 41.5522 23.1144 41.9999 23.6666 41.9999C24.2189 41.9999 24.6666 41.5522 24.6666 40.9999V25H40.6665C41.2188 25 41.6665 24.5523 41.6665 24C41.6665 23.4477 41.2188 23 40.6665 23H24.6666V6.99988Z" fill="white"/>
</svg>
